# xmcd
#
# Track frame offsets:
#	150
#	12744
#	29570
#	46209
#	59638
#	76464
#	91851
#	111503
#	127846
#	146671
#
# Disc length: 2160 seconds
#
# Revision: 1
# Processed by: cddbd v1.5.2PL0 Copyright (c) Steve Scherf et al.
# Submitted via: audiograbber 1.83.01
#
DISCID=8b086e0a
DTITLE=Bret Mullins - Good Place To Be From
DYEAR=2012
DGENRE=Country
TTITLE0=Bar Too High
TTITLE1=Good Place to Be From
TTITLE2=Innocent
TTITLE3=Misery
TTITLE4=Little Games
TTITLE5=Heroes Have Always Killed Cowboys
TTITLE6=Ride Me Down
TTITLE7=Ballad of John and Yoko
TTITLE8=What a Little Lonely Can Do
TTITLE9=When White People Drink Tequila
EXTD=
EXTT0=
EXTT1=
EXTT2=
EXTT3=
EXTT4=
EXTT5=
EXTT6=
EXTT7=
EXTT8=
EXTT9=
PLAYORDER=
